<mxfile host="app.diagrams.net" agent="Mozilla/5.0 (Windows NT 10.0; Win64; x64) AppleWebKit/537.36 (KHTML, like Gecko) Chrome/131.0.0.0 Safari/537.36" version="25.0.3">
  <diagram name="Страница — 1" id="7-a42lVrFpJLpmKe5alU">
    <mxGraphModel grid="1" page="1" gridSize="10" guides="1" tooltips="1" connect="1" arrows="1" fold="1" pageScale="1" pageWidth="827" pageHeight="1169" math="0" shadow="0">
      <root>
        <mxCell id="0" />
        <mxCell id="1" parent="0" />
        <mxCell id="aXq6wjzh_ZO6XkLL1-ng-1" value="Аналитик" style="shape=umlActor;verticalLabelPosition=bottom;verticalAlign=top;html=1;outlineConnect=0;" vertex="1" parent="1">
          <mxGeometry x="1060" y="-70" width="30" height="60" as="geometry" />
        </mxCell>
        <mxCell id="aXq6wjzh_ZO6XkLL1-ng-2" value="ИС" style="rounded=0;whiteSpace=wrap;html=1;" vertex="1" parent="1">
          <mxGeometry x="1200" y="-60" width="120" height="60" as="geometry" />
        </mxCell>
        <mxCell id="aXq6wjzh_ZO6XkLL1-ng-3" value="" style="rounded=0;whiteSpace=wrap;html=1;" vertex="1" parent="1">
          <mxGeometry x="1255" y="40" width="10" height="60" as="geometry" />
        </mxCell>
        <mxCell id="aXq6wjzh_ZO6XkLL1-ng-4" value="" style="rounded=0;whiteSpace=wrap;html=1;" vertex="1" parent="1">
          <mxGeometry x="1070" y="40" width="10" height="60" as="geometry" />
        </mxCell>
        <mxCell id="aXq6wjzh_ZO6XkLL1-ng-5" value="" style="endArrow=classic;html=1;rounded=0;exitX=1.023;exitY=0.08;exitDx=0;exitDy=0;exitPerimeter=0;entryX=-0.059;entryY=0.083;entryDx=0;entryDy=0;entryPerimeter=0;" edge="1" parent="1" source="aXq6wjzh_ZO6XkLL1-ng-4" target="aXq6wjzh_ZO6XkLL1-ng-3">
          <mxGeometry width="50" height="50" relative="1" as="geometry">
            <mxPoint x="850" y="240" as="sourcePoint" />
            <mxPoint x="1250" y="59" as="targetPoint" />
          </mxGeometry>
        </mxCell>
        <mxCell id="aXq6wjzh_ZO6XkLL1-ng-6" value="1. Просмотр требований заказчика" style="edgeLabel;html=1;align=center;verticalAlign=middle;resizable=0;points=[];" connectable="0" vertex="1" parent="aXq6wjzh_ZO6XkLL1-ng-5">
          <mxGeometry x="-0.2837" y="2" relative="1" as="geometry">
            <mxPoint x="28" y="-6" as="offset" />
          </mxGeometry>
        </mxCell>
        <mxCell id="aXq6wjzh_ZO6XkLL1-ng-7" value="Менеджер проекта" style="shape=umlActor;verticalLabelPosition=bottom;verticalAlign=top;html=1;outlineConnect=0;" vertex="1" parent="1">
          <mxGeometry x="1430" y="-60" width="30" height="60" as="geometry" />
        </mxCell>
        <mxCell id="aXq6wjzh_ZO6XkLL1-ng-8" value="" style="endArrow=classic;html=1;rounded=0;entryX=1;entryY=0.75;entryDx=0;entryDy=0;exitX=0;exitY=0.75;exitDx=0;exitDy=0;dashed=1;" edge="1" parent="1" source="aXq6wjzh_ZO6XkLL1-ng-3" target="aXq6wjzh_ZO6XkLL1-ng-4">
          <mxGeometry width="50" height="50" relative="1" as="geometry">
            <mxPoint x="1230" y="210" as="sourcePoint" />
            <mxPoint x="1280" y="160" as="targetPoint" />
          </mxGeometry>
        </mxCell>
        <mxCell id="aXq6wjzh_ZO6XkLL1-ng-9" value="2. Список требований" style="edgeLabel;html=1;align=center;verticalAlign=middle;resizable=0;points=[];" connectable="0" vertex="1" parent="aXq6wjzh_ZO6XkLL1-ng-8">
          <mxGeometry x="-0.1287" y="-2" relative="1" as="geometry">
            <mxPoint x="-8" y="-13" as="offset" />
          </mxGeometry>
        </mxCell>
        <mxCell id="aXq6wjzh_ZO6XkLL1-ng-10" value="" style="rounded=0;whiteSpace=wrap;html=1;" vertex="1" parent="1">
          <mxGeometry x="1255" y="120" width="10" height="60" as="geometry" />
        </mxCell>
        <mxCell id="aXq6wjzh_ZO6XkLL1-ng-11" value="" style="rounded=0;whiteSpace=wrap;html=1;" vertex="1" parent="1">
          <mxGeometry x="1440" y="120" width="10" height="60" as="geometry" />
        </mxCell>
        <mxCell id="aXq6wjzh_ZO6XkLL1-ng-12" value="" style="endArrow=classic;html=1;rounded=0;entryX=1;entryY=0.25;entryDx=0;entryDy=0;exitX=0;exitY=0.25;exitDx=0;exitDy=0;" edge="1" parent="1" source="aXq6wjzh_ZO6XkLL1-ng-11" target="aXq6wjzh_ZO6XkLL1-ng-10">
          <mxGeometry width="50" height="50" relative="1" as="geometry">
            <mxPoint x="1310" y="240" as="sourcePoint" />
            <mxPoint x="1360" y="190" as="targetPoint" />
          </mxGeometry>
        </mxCell>
        <mxCell id="aXq6wjzh_ZO6XkLL1-ng-14" value="" style="endArrow=classic;html=1;rounded=0;entryX=0;entryY=0.75;entryDx=0;entryDy=0;exitX=1;exitY=0.75;exitDx=0;exitDy=0;dashed=1;" edge="1" parent="1" source="aXq6wjzh_ZO6XkLL1-ng-10" target="aXq6wjzh_ZO6XkLL1-ng-11">
          <mxGeometry width="50" height="50" relative="1" as="geometry">
            <mxPoint x="1270" y="240" as="sourcePoint" />
            <mxPoint x="1320" y="190" as="targetPoint" />
          </mxGeometry>
        </mxCell>
        <mxCell id="aXq6wjzh_ZO6XkLL1-ng-15" value="4.&amp;nbsp;Информация о ресурсах" style="edgeLabel;html=1;align=center;verticalAlign=middle;resizable=0;points=[];" connectable="0" vertex="1" parent="aXq6wjzh_ZO6XkLL1-ng-14">
          <mxGeometry x="-0.3052" y="2" relative="1" as="geometry">
            <mxPoint x="24" y="-13" as="offset" />
          </mxGeometry>
        </mxCell>
        <mxCell id="aXq6wjzh_ZO6XkLL1-ng-16" value="Разработчик" style="shape=umlActor;verticalLabelPosition=bottom;verticalAlign=top;html=1;outlineConnect=0;" vertex="1" parent="1">
          <mxGeometry x="1600" y="-60" width="30" height="60" as="geometry" />
        </mxCell>
        <mxCell id="aXq6wjzh_ZO6XkLL1-ng-17" value="" style="rounded=0;whiteSpace=wrap;html=1;" vertex="1" parent="1">
          <mxGeometry x="1440" y="210" width="10" height="60" as="geometry" />
        </mxCell>
        <mxCell id="aXq6wjzh_ZO6XkLL1-ng-18" value="" style="rounded=0;whiteSpace=wrap;html=1;" vertex="1" parent="1">
          <mxGeometry x="1610" y="210" width="10" height="60" as="geometry" />
        </mxCell>
        <mxCell id="aXq6wjzh_ZO6XkLL1-ng-19" value="" style="endArrow=classic;html=1;rounded=0;entryX=0;entryY=0.25;entryDx=0;entryDy=0;exitX=1;exitY=0.25;exitDx=0;exitDy=0;" edge="1" parent="1" source="aXq6wjzh_ZO6XkLL1-ng-17" target="aXq6wjzh_ZO6XkLL1-ng-18">
          <mxGeometry width="50" height="50" relative="1" as="geometry">
            <mxPoint x="1460" y="290" as="sourcePoint" />
            <mxPoint x="1510" y="240" as="targetPoint" />
          </mxGeometry>
        </mxCell>
        <mxCell id="aXq6wjzh_ZO6XkLL1-ng-20" value="5.&amp;nbsp;Запрос статуса задач" style="edgeLabel;html=1;align=center;verticalAlign=middle;resizable=0;points=[];" connectable="0" vertex="1" parent="aXq6wjzh_ZO6XkLL1-ng-19">
          <mxGeometry x="-0.2853" y="2" relative="1" as="geometry">
            <mxPoint x="23" y="-13" as="offset" />
          </mxGeometry>
        </mxCell>
        <mxCell id="aXq6wjzh_ZO6XkLL1-ng-21" value="" style="endArrow=classic;html=1;rounded=0;entryX=1;entryY=0.75;entryDx=0;entryDy=0;exitX=0;exitY=0.75;exitDx=0;exitDy=0;dashed=1;" edge="1" parent="1" source="aXq6wjzh_ZO6XkLL1-ng-18" target="aXq6wjzh_ZO6XkLL1-ng-17">
          <mxGeometry width="50" height="50" relative="1" as="geometry">
            <mxPoint x="1460" y="330" as="sourcePoint" />
            <mxPoint x="1510" y="280" as="targetPoint" />
          </mxGeometry>
        </mxCell>
        <mxCell id="aXq6wjzh_ZO6XkLL1-ng-22" value="6.&amp;nbsp;Информация о задачах" style="edgeLabel;html=1;align=center;verticalAlign=middle;resizable=0;points=[];" connectable="0" vertex="1" parent="aXq6wjzh_ZO6XkLL1-ng-21">
          <mxGeometry x="-0.1543" relative="1" as="geometry">
            <mxPoint x="-12" y="-15" as="offset" />
          </mxGeometry>
        </mxCell>
        <mxCell id="aXq6wjzh_ZO6XkLL1-ng-23" value="Отдел контроля качества" style="shape=umlActor;verticalLabelPosition=bottom;verticalAlign=top;html=1;outlineConnect=0;" vertex="1" parent="1">
          <mxGeometry x="1770" y="-60" width="30" height="60" as="geometry" />
        </mxCell>
        <mxCell id="aXq6wjzh_ZO6XkLL1-ng-24" value="" style="rounded=0;whiteSpace=wrap;html=1;" vertex="1" parent="1">
          <mxGeometry x="1440" y="300" width="10" height="60" as="geometry" />
        </mxCell>
        <mxCell id="aXq6wjzh_ZO6XkLL1-ng-25" value="" style="rounded=0;whiteSpace=wrap;html=1;" vertex="1" parent="1">
          <mxGeometry x="1780" y="300" width="10" height="60" as="geometry" />
        </mxCell>
        <mxCell id="aXq6wjzh_ZO6XkLL1-ng-26" value="" style="endArrow=classic;html=1;rounded=0;entryX=0;entryY=0.25;entryDx=0;entryDy=0;exitX=1;exitY=0.25;exitDx=0;exitDy=0;" edge="1" parent="1" source="aXq6wjzh_ZO6XkLL1-ng-24" target="aXq6wjzh_ZO6XkLL1-ng-25">
          <mxGeometry width="50" height="50" relative="1" as="geometry">
            <mxPoint x="1350" y="430" as="sourcePoint" />
            <mxPoint x="1400" y="380" as="targetPoint" />
          </mxGeometry>
        </mxCell>
        <mxCell id="aXq6wjzh_ZO6XkLL1-ng-27" value="7.&amp;nbsp;Запрос на промежуточный контроль&lt;span style=&quot;color: rgba(0, 0, 0, 0); font-family: monospace; font-size: 0px; text-align: start;&quot;&gt;%3CmxGraphModel%3E%3Croot%3E%3CmxCell%20id%3D%220%22%2F%3E%3CmxCell%20id%3D%221%22%20parent%3D%220%22%2F%3E%3CmxCell%20id%3D%222%22%20value%3D%22%22%20style%3D%22rounded%3D0%3BwhiteSpace%3Dwrap%3Bhtml%3D1%3B%22%20vertex%3D%221%22%20parent%3D%221%22%3E%3CmxGeometry%20x%3D%221610%22%20y%3D%22300%22%20width%3D%2210%22%20height%3D%2260%22%20as%3D%22geometry%22%2F%3E%3C%2FmxCell%3E%3C%2Froot%3E%3C%2FmxGraphModel%3E&lt;/span&gt;" style="edgeLabel;html=1;align=center;verticalAlign=middle;resizable=0;points=[];" connectable="0" vertex="1" parent="aXq6wjzh_ZO6XkLL1-ng-26">
          <mxGeometry x="-0.3255" y="3" relative="1" as="geometry">
            <mxPoint x="39" y="-12" as="offset" />
          </mxGeometry>
        </mxCell>
        <mxCell id="aXq6wjzh_ZO6XkLL1-ng-28" value="" style="endArrow=classic;html=1;rounded=0;entryX=1;entryY=0.75;entryDx=0;entryDy=0;exitX=0;exitY=0.75;exitDx=0;exitDy=0;dashed=1;" edge="1" parent="1" source="aXq6wjzh_ZO6XkLL1-ng-25" target="aXq6wjzh_ZO6XkLL1-ng-24">
          <mxGeometry width="50" height="50" relative="1" as="geometry">
            <mxPoint x="1540" y="440" as="sourcePoint" />
            <mxPoint x="1590" y="390" as="targetPoint" />
          </mxGeometry>
        </mxCell>
        <mxCell id="aXq6wjzh_ZO6XkLL1-ng-29" value="8.&amp;nbsp;Отчет о промежуточном контроле" style="edgeLabel;html=1;align=center;verticalAlign=middle;resizable=0;points=[];" connectable="0" vertex="1" parent="aXq6wjzh_ZO6XkLL1-ng-28">
          <mxGeometry x="0.3628" y="3" relative="1" as="geometry">
            <mxPoint x="45" y="-18" as="offset" />
          </mxGeometry>
        </mxCell>
        <mxCell id="aXq6wjzh_ZO6XkLL1-ng-30" value="" style="rounded=0;whiteSpace=wrap;html=1;" vertex="1" parent="1">
          <mxGeometry x="1440" y="390" width="10" height="60" as="geometry" />
        </mxCell>
        <mxCell id="aXq6wjzh_ZO6XkLL1-ng-31" value="" style="rounded=0;whiteSpace=wrap;html=1;" vertex="1" parent="1">
          <mxGeometry x="1255" y="390" width="10" height="60" as="geometry" />
        </mxCell>
        <mxCell id="aXq6wjzh_ZO6XkLL1-ng-32" value="" style="endArrow=classic;html=1;rounded=0;entryX=1.029;entryY=0.159;entryDx=0;entryDy=0;entryPerimeter=0;exitX=0.035;exitY=0.151;exitDx=0;exitDy=0;exitPerimeter=0;" edge="1" parent="1" source="aXq6wjzh_ZO6XkLL1-ng-30" target="aXq6wjzh_ZO6XkLL1-ng-31">
          <mxGeometry width="50" height="50" relative="1" as="geometry">
            <mxPoint x="1310" y="440" as="sourcePoint" />
            <mxPoint x="1360" y="390" as="targetPoint" />
          </mxGeometry>
        </mxCell>
        <mxCell id="aXq6wjzh_ZO6XkLL1-ng-33" value="&lt;font style=&quot;font-size: 8px;&quot;&gt;9. Запрос на обновление статуса проекта&lt;/font&gt;" style="edgeLabel;html=1;align=center;verticalAlign=middle;resizable=0;points=[];" connectable="0" vertex="1" parent="aXq6wjzh_ZO6XkLL1-ng-32">
          <mxGeometry x="-0.3213" relative="1" as="geometry">
            <mxPoint x="-21" y="-9" as="offset" />
          </mxGeometry>
        </mxCell>
        <mxCell id="aXq6wjzh_ZO6XkLL1-ng-34" value="" style="endArrow=classic;html=1;rounded=0;entryX=0;entryY=0.75;entryDx=0;entryDy=0;exitX=1;exitY=0.75;exitDx=0;exitDy=0;dashed=1;" edge="1" parent="1" source="aXq6wjzh_ZO6XkLL1-ng-31" target="aXq6wjzh_ZO6XkLL1-ng-30">
          <mxGeometry width="50" height="50" relative="1" as="geometry">
            <mxPoint x="1290" y="490" as="sourcePoint" />
            <mxPoint x="1340" y="440" as="targetPoint" />
          </mxGeometry>
        </mxCell>
        <mxCell id="aXq6wjzh_ZO6XkLL1-ng-35" value="10. Статус проекта обновлён" style="edgeLabel;html=1;align=center;verticalAlign=middle;resizable=0;points=[];" connectable="0" vertex="1" parent="aXq6wjzh_ZO6XkLL1-ng-34">
          <mxGeometry x="-0.3069" y="2" relative="1" as="geometry">
            <mxPoint x="29" y="-13" as="offset" />
          </mxGeometry>
        </mxCell>
        <mxCell id="aXq6wjzh_ZO6XkLL1-ng-36" value="" style="endArrow=none;dashed=1;html=1;strokeWidth=2;rounded=0;exitX=0.5;exitY=0;exitDx=0;exitDy=0;" edge="1" parent="1" source="aXq6wjzh_ZO6XkLL1-ng-4" target="aXq6wjzh_ZO6XkLL1-ng-1">
          <mxGeometry width="50" height="50" relative="1" as="geometry">
            <mxPoint x="1820" y="220" as="sourcePoint" />
            <mxPoint x="1240" y="20" as="targetPoint" />
          </mxGeometry>
        </mxCell>
        <mxCell id="aXq6wjzh_ZO6XkLL1-ng-37" value="" style="endArrow=none;dashed=1;html=1;strokeWidth=2;rounded=0;entryX=0.5;entryY=1;entryDx=0;entryDy=0;" edge="1" parent="1" target="aXq6wjzh_ZO6XkLL1-ng-4">
          <mxGeometry width="50" height="50" relative="1" as="geometry">
            <mxPoint x="1075" y="480" as="sourcePoint" />
            <mxPoint x="1090" y="150" as="targetPoint" />
          </mxGeometry>
        </mxCell>
        <mxCell id="aXq6wjzh_ZO6XkLL1-ng-38" value="" style="endArrow=none;dashed=1;html=1;strokeWidth=2;rounded=0;entryX=0.5;entryY=1;entryDx=0;entryDy=0;exitX=0.5;exitY=0;exitDx=0;exitDy=0;" edge="1" parent="1" source="aXq6wjzh_ZO6XkLL1-ng-3" target="aXq6wjzh_ZO6XkLL1-ng-2">
          <mxGeometry width="50" height="50" relative="1" as="geometry">
            <mxPoint x="1320" y="70" as="sourcePoint" />
            <mxPoint x="1370" y="20" as="targetPoint" />
          </mxGeometry>
        </mxCell>
        <mxCell id="aXq6wjzh_ZO6XkLL1-ng-39" value="" style="endArrow=none;dashed=1;html=1;strokeWidth=2;rounded=0;entryX=0.5;entryY=1;entryDx=0;entryDy=0;exitX=0.5;exitY=0;exitDx=0;exitDy=0;" edge="1" parent="1" source="aXq6wjzh_ZO6XkLL1-ng-10" target="aXq6wjzh_ZO6XkLL1-ng-3">
          <mxGeometry width="50" height="50" relative="1" as="geometry">
            <mxPoint x="1180" y="200" as="sourcePoint" />
            <mxPoint x="1230" y="150" as="targetPoint" />
          </mxGeometry>
        </mxCell>
        <mxCell id="aXq6wjzh_ZO6XkLL1-ng-40" value="" style="endArrow=none;dashed=1;html=1;strokeWidth=2;rounded=0;entryX=0.5;entryY=1;entryDx=0;entryDy=0;exitX=0.5;exitY=0;exitDx=0;exitDy=0;" edge="1" parent="1" source="aXq6wjzh_ZO6XkLL1-ng-31" target="aXq6wjzh_ZO6XkLL1-ng-10">
          <mxGeometry width="50" height="50" relative="1" as="geometry">
            <mxPoint x="1260" y="350" as="sourcePoint" />
            <mxPoint x="1230" y="270" as="targetPoint" />
          </mxGeometry>
        </mxCell>
        <mxCell id="aXq6wjzh_ZO6XkLL1-ng-41" value="" style="endArrow=none;dashed=1;html=1;strokeWidth=2;rounded=0;exitX=0.5;exitY=0;exitDx=0;exitDy=0;" edge="1" parent="1" source="aXq6wjzh_ZO6XkLL1-ng-11" target="aXq6wjzh_ZO6XkLL1-ng-7">
          <mxGeometry width="50" height="50" relative="1" as="geometry">
            <mxPoint x="1390" y="120" as="sourcePoint" />
            <mxPoint x="1450" y="40" as="targetPoint" />
          </mxGeometry>
        </mxCell>
        <mxCell id="aXq6wjzh_ZO6XkLL1-ng-42" value="" style="endArrow=none;dashed=1;html=1;strokeWidth=2;rounded=0;entryX=0.5;entryY=1;entryDx=0;entryDy=0;exitX=0.5;exitY=0;exitDx=0;exitDy=0;" edge="1" parent="1" source="aXq6wjzh_ZO6XkLL1-ng-17" target="aXq6wjzh_ZO6XkLL1-ng-11">
          <mxGeometry width="50" height="50" relative="1" as="geometry">
            <mxPoint x="1320" y="310" as="sourcePoint" />
            <mxPoint x="1370" y="260" as="targetPoint" />
          </mxGeometry>
        </mxCell>
        <mxCell id="aXq6wjzh_ZO6XkLL1-ng-43" value="" style="endArrow=none;dashed=1;html=1;strokeWidth=2;rounded=0;entryX=0.5;entryY=1;entryDx=0;entryDy=0;exitX=0.5;exitY=0;exitDx=0;exitDy=0;" edge="1" parent="1" source="aXq6wjzh_ZO6XkLL1-ng-24" target="aXq6wjzh_ZO6XkLL1-ng-17">
          <mxGeometry width="50" height="50" relative="1" as="geometry">
            <mxPoint x="1360" y="330" as="sourcePoint" />
            <mxPoint x="1410" y="280" as="targetPoint" />
          </mxGeometry>
        </mxCell>
        <mxCell id="aXq6wjzh_ZO6XkLL1-ng-44" value="" style="endArrow=none;dashed=1;html=1;strokeWidth=2;rounded=0;entryX=0.5;entryY=1;entryDx=0;entryDy=0;exitX=0.5;exitY=0;exitDx=0;exitDy=0;" edge="1" parent="1" source="aXq6wjzh_ZO6XkLL1-ng-30" target="aXq6wjzh_ZO6XkLL1-ng-24">
          <mxGeometry width="50" height="50" relative="1" as="geometry">
            <mxPoint x="1520" y="430" as="sourcePoint" />
            <mxPoint x="1570" y="380" as="targetPoint" />
          </mxGeometry>
        </mxCell>
        <mxCell id="aXq6wjzh_ZO6XkLL1-ng-45" value="" style="endArrow=none;dashed=1;html=1;strokeWidth=2;rounded=0;entryX=0.5;entryY=0;entryDx=0;entryDy=0;" edge="1" parent="1" source="aXq6wjzh_ZO6XkLL1-ng-16" target="aXq6wjzh_ZO6XkLL1-ng-18">
          <mxGeometry width="50" height="50" relative="1" as="geometry">
            <mxPoint x="1600" y="130" as="sourcePoint" />
            <mxPoint x="1650" y="80" as="targetPoint" />
          </mxGeometry>
        </mxCell>
        <mxCell id="aXq6wjzh_ZO6XkLL1-ng-46" value="" style="endArrow=none;dashed=1;html=1;strokeWidth=2;rounded=0;entryX=0.5;entryY=1;entryDx=0;entryDy=0;" edge="1" parent="1" target="aXq6wjzh_ZO6XkLL1-ng-18">
          <mxGeometry width="50" height="50" relative="1" as="geometry">
            <mxPoint x="1615" y="480" as="sourcePoint" />
            <mxPoint x="1600" y="390" as="targetPoint" />
          </mxGeometry>
        </mxCell>
        <mxCell id="aXq6wjzh_ZO6XkLL1-ng-47" value="" style="endArrow=none;dashed=1;html=1;strokeWidth=2;rounded=0;entryX=0.5;entryY=1;entryDx=0;entryDy=0;" edge="1" parent="1" target="aXq6wjzh_ZO6XkLL1-ng-31">
          <mxGeometry width="50" height="50" relative="1" as="geometry">
            <mxPoint x="1260" y="480" as="sourcePoint" />
            <mxPoint x="1290" y="540" as="targetPoint" />
          </mxGeometry>
        </mxCell>
        <mxCell id="aXq6wjzh_ZO6XkLL1-ng-48" value="" style="endArrow=none;dashed=1;html=1;strokeWidth=2;rounded=0;entryX=0.5;entryY=1;entryDx=0;entryDy=0;" edge="1" parent="1" target="aXq6wjzh_ZO6XkLL1-ng-30">
          <mxGeometry width="50" height="50" relative="1" as="geometry">
            <mxPoint x="1445" y="480" as="sourcePoint" />
            <mxPoint x="1270" y="460" as="targetPoint" />
          </mxGeometry>
        </mxCell>
        <mxCell id="aXq6wjzh_ZO6XkLL1-ng-49" value="" style="endArrow=none;dashed=1;html=1;strokeWidth=2;rounded=0;entryX=0.5;entryY=0;entryDx=0;entryDy=0;" edge="1" parent="1" source="aXq6wjzh_ZO6XkLL1-ng-23" target="aXq6wjzh_ZO6XkLL1-ng-25">
          <mxGeometry width="50" height="50" relative="1" as="geometry">
            <mxPoint x="1650" y="180" as="sourcePoint" />
            <mxPoint x="1700" y="130" as="targetPoint" />
          </mxGeometry>
        </mxCell>
        <mxCell id="aXq6wjzh_ZO6XkLL1-ng-50" value="" style="endArrow=none;dashed=1;html=1;strokeWidth=2;rounded=0;entryX=0.5;entryY=1;entryDx=0;entryDy=0;" edge="1" parent="1" target="aXq6wjzh_ZO6XkLL1-ng-25">
          <mxGeometry width="50" height="50" relative="1" as="geometry">
            <mxPoint x="1785" y="480" as="sourcePoint" />
            <mxPoint x="1750" y="470" as="targetPoint" />
          </mxGeometry>
        </mxCell>
        <mxCell id="aXq6wjzh_ZO6XkLL1-ng-51" value="&lt;span style=&quot;font-size: 10px; background-color: rgb(251, 251, 251);&quot;&gt;3.&amp;nbsp;Просмотр доступных ресурсов&lt;/span&gt;" style="edgeLabel;html=1;align=center;verticalAlign=middle;resizable=0;points=[];" connectable="0" vertex="1" parent="1">
          <mxGeometry x="1350.0002325581393" y="120" as="geometry" />
        </mxCell>
      </root>
    </mxGraphModel>
  </diagram>
</mxfile>
